<svg xmlns="http://www.w3.org/2000/svg"
     viewBox="0 0 370.999 237.581">
    <defs>
        <style>.a{fill:#fff;}.b{fill:#fff;}.c{fill:#231f20;}</style>
    </defs>
    <title>Logo_2_final</title>
    <path class="a"
          d="M147.563,80.2h8.092l16.184,33.448,6.474-3.129-14.89-30.858c8.848-3.021,12.408-11.437,12.408-20.284,0-12.947-8.955-19.1-16.076-19.1H140.334v71.965h7.229Zm0-33.447h8.848c7.337,0,11.868,3.237,11.868,12.624,0,9.711-3.885,14.35-10.143,14.35H147.563Z"/><path class="a" d="M98.685,113.22c20.284,0,19.961-27.945,19.961-37.009,0-9.494.323-36.9-19.961-36.9-19.2,0-19.96,25.031-19.96,36.9C78.726,85.491,78.186,113.22,98.685,113.22Zm0-67.111c12.731,0,12.408,16.507,12.408,30.1,0,12.517.108,30.211-12.408,30.211-10.142,0-12.407-10.789-12.407-30.211C86.278,65.638,85.954,46.109,98.685,46.109Z"/><polygon class="a" points="203.022 52.259 203.238 52.259 215.538 88.404 227.839 52.259 228.055 52.259 229.457 112.249 237.117 112.249 234.959 40.283 225.896 40.283 215.538 70.817 205.181 40.283 196.226 40.283 194.067 112.249 201.62 112.249 203.022 52.259"/><polygon class="a" points="36.106 76.967 59.735 76.967 59.735 70.494 36.106 70.494 36.106 46.757 64.267 46.757 64.267 40.283 28.877 40.283 28.877 112.249 36.106 112.249 36.106 76.967"/><rect class="a" x="4.166" y="149.749" width="362.667" height="83.665"/><path d="M168.279,59.38c0-9.387-4.531-12.624-11.868-12.624h-8.848V73.73h10.573C164.394,73.73,168.279,69.091,168.279,59.38Z"/><path d="M98.685,106.422c12.516,0,12.408-17.694,12.408-30.211,0-13.595.323-30.1-12.408-30.1s-12.407,19.529-12.407,30.1C86.278,95.633,88.544,106.422,98.685,106.422Z"/><polygon points="300.334 113.62 336.205 113.62 336.205 65.683 318.583 65.683 318.583 76.312 314.95 79.955 300.334 79.955 300.334 113.62"/><rect x="300.334" y="65.683" width="13.449" height="11.303"/><path d="M0,0V237.58H371V0ZM275.188,37.32l3.373-3.305h40.021V59.859H341v52.916l-3.633,4.559H297.61V79.955H275.188Zm-78.963,2.963h8.955l10.357,30.534L225.9,40.283h9.062l2.158,71.965h-7.66l-1.4-59.989h-.216L215.538,88.4l-12.3-36.144h-.216l-1.4,59.989h-7.553Zm-55.892,0h19.422c7.121,0,16.076,6.15,16.076,19.1,0,8.848-3.56,17.263-12.408,20.284l14.89,30.858-6.474,3.129L155.655,80.2h-8.092v32.045h-7.229ZM78.726,76.211c0-11.868.755-36.9,19.96-36.9,20.284,0,19.961,27.405,19.961,36.9,0,9.064.323,37.009-19.961,37.009C78.186,113.22,78.726,85.491,78.726,76.211ZM28.877,40.283h35.39v6.474H36.106V70.494H59.735v6.474H36.106v35.281H28.877ZM366.833,233.415H4.166V149.75H366.833Z"/>
    <polygon points="297.61 63.995 300.983 59.859 313.783 59.859 313.783 38.669 277.912 38.669 277.912 76.986 297.61 76.986 297.61 63.995"/>
    <path class="b" d="M297.61,117.334h39.762L341,112.775V59.859H318.583V34.015H278.561l-3.373,3.305V79.955H297.61Zm20.973-41.021V65.683h17.622V113.62H300.334V79.955H314.95Zm-18.249.674v-11.3h13.449v11.3Zm-22.422,0V38.669h35.871v21.19h-12.8l-3.373,4.136V76.986Z"/>
    <path class="c" d="M61.416,164.294l-5.46,55.418H53.593l-9.047-32.844h-.162l-9.047,32.844H32.974l-5.461-55.418,5.461-1.06,2.607,40.83h.164l7.9-28.606H45.28l7.9,28.606h.164l2.607-40.83Z"/>
    <path class="c"
          d="M79.341,164.294h26.487v4.89H84.8v17.93h17.359V192H84.8v21.76h21.026v4.89H79.341Z"/>
    <path class="c"
          d="M126.12,164.294h14.67c5.379,0,12.143,4.645,12.143,14.425,0,6.683-2.688,13.039-9.372,15.321l11.247,23.308-4.89,2.363-12.225-25.265h-6.112v24.205H126.12Zm5.461,25.264h7.986c4.726,0,7.661-3.5,7.661-10.839,0-7.09-3.423-9.535-8.965-9.535h-6.683Z"/>
    <path class="c"
          d="M169.066,169.183v-4.89H183.41c10.92,0,17.358,4.808,17.358,27.22,0,11.98-.651,27.139-17.2,27.139H169.066v-4.89h4.4V169.183Zm9.861,44.579h4.482c6.6,0,11.653-1.712,11.653-22.249,0-20.7-5.541-22.33-10.35-22.33h-5.786Z"/>
    <path class="c"
          d="M222.523,164.294V203.82c0,5.378,1.06,10.432,7.824,10.432s7.905-5.135,7.905-10.432V164.294h5.46V205.45c0,8.476-5.3,13.936-13.365,13.936-8.231,0-13.284-5.623-13.284-13.691v-41.4Z"/>
    <path class="c"
          d="M262.7,164.294h6.846l16.137,45.72.163-.163-.245-12.143V164.294h5.461v54.358h-6.846l-16.137-45.8-.163.163.244,12.307v33.332H262.7Z"/>
    <path class="c"
          d="M337.753,214.659a20.5,20.5,0,0,1-12.633,4.727c-14.017,0-16.462-16.951-16.462-27.79,0-10.187,2.363-28.035,15.892-28.035,6.112,0,10.595,3.749,13.61,8.72l-4.809,2.934c-1.956-3.5-4.809-6.519-9.128-6.519-9.046,0-9.86,16.626-9.86,23.063,0,18.663,5.46,22.494,10.839,22.494a12.129,12.129,0,0,0,7.09-2.527V195.343H322.105v-4.89h15.647Z"/>
</svg>